<?xml version="1.0" encoding="UTF-8" standalone="no"?>
<!DOCTYPE svg PUBLIC "-//W3C//DTD SVG 1.1//EN" "http://www.w3.org/Graphics/SVG/1.1/DTD/svg11.dtd">
<svg width="100%" height="100%" viewBox="0 0 23 21" version="1.1" xmlns="http://www.w3.org/2000/svg" xmlns:xlink="http://www.w3.org/1999/xlink" xml:space="preserve" xmlns:serif="http://www.serif.com/" style="fill-rule:evenodd;clip-rule:evenodd;stroke-linejoin:round;stroke-miterlimit:2;">
    <g transform="matrix(1,0,0,1,-0.999963,-1.28062)">
        <path d="M14.228,20.403L13.874,13.207L12,13.197L10.102,13.105L9.552,20.207L9,20L9,14C9,12.895 9.895,12 11,12L13,12C14.105,12 15,12.895 15,14L15,20L14.228,20.403ZM20,9.681L20,20C20,21.105 19.105,22 18,22L6,22C4.895,22 4,21.105 4,20L4,9.681L2.625,10.781C2.193,11.126 1.564,11.056 1.219,10.625C0.874,10.193 0.944,9.564 1.375,9.219L10.751,1.719C11.481,1.135 12.519,1.135 13.249,1.719L22.625,9.219C23.056,9.564 23.126,10.193 22.781,10.625C22.436,11.056 21.807,11.126 21.375,10.781L20,9.681ZM13,14L11,14L11,20L13,20L13,14Z" style="fill:white;fill-rule:nonzero;"/>
    </g>
</svg>
